# xmcd
#
# Track frame offsets:
#	150
#	39778
#	78438
#	91987
#	119797
#	136156
#	150785
#
# Disc length: 2106 seconds
#
# Revision: 1
# Processed by: cddbd v1.5.2PL0 Copyright (c) Steve Scherf et al.
# Submitted via: audiograbber 1.83.01
#
DISCID=47083807
DTITLE=Grateful Dead - 69-08-02 Family Dog at the Great Highway, San Francisco 
DTITLE=CA
DYEAR=1900
DGENRE=
TTITLE0=Casey Jones
TTITLE1=Hard To Handle
TTITLE2=Mama Tried
TTITLE3=High Time
TTITLE4=Seasons Of My Heart
TTITLE5=Slewfoot
TTITLE6=Big Boss Man
EXTD=
EXTT0=
EXTT1=
EXTT2=
EXTT3=
EXTT4=
EXTT5=
EXTT6=
PLAYORDER=
